<svg width="200" height="200" viewBox="0 0 200 200" fill="none" xmlns="http://www.w3.org/2000/svg">
	<path fill-rule="evenodd" clip-rule="evenodd" d="M158 15.5H41V24.5H50V33.5H59V42.5H68V51.5H77V60.5H122V51.5H131V42.5H140V33.5H149V24.5H158V15.5ZM77 148.5V139.5L122 139.5V148.5H131V157.5H140V166.5H149V175.5H158V184.5H41V175.5H50V166.5H59V157.5H68V148.5H77ZM1 76.5V121.5H28V112.5H37V85.5H28V76.5H1ZM27.64 112.5H10V85.5H27.64V112.5ZM55 85.5V121.5H64V103.5H82V121.5H91V85.5H82V76.5H64V85.5H55ZM82 94.5H64V85.86H82V94.5ZM118 85.5V76.5H145V85.5H118ZM118 94.5H109V85.5H118V94.5ZM136 103.5H118V94.5H136V103.5ZM136 112.5V103.5H145V112.5H136ZM136 112.5V121.5H109V112.5H136ZM163 76.5V121.5H172V103.5H190V121.5H199V76.5H190V94.5H172V76.5H163Z" fill="currentColor"/>
</svg>
	