<svg width="110" height="110" viewBox="0 0 110 110" fill="none" xmlns="http://www.w3.org/2000/svg">
	<path d="M10 49.25V4.25H37V13.25H46V40.25H37V49.25H10ZM19 40.25H36.64V13.25H19V40.25Z" fill="currentColor" />
	<path d="M64 49.25V13.25H73V4.25H91V13.25H100V49.25H91V31.25H73V49.25H64ZM73 22.25H91V13.61H73V22.25Z" fill="currentColor"/>
	<path d="M19 69.75V60.75H46V69.75H19ZM37 96.75V87.75H19V78.75H10V69.75H19V78.75H37V87.75H46V96.75H37ZM10 105.75V96.75H37V105.75H10Z" fill="currentColor" />
	<path d="M64 105.75V60.75H73V78.75H91V60.75H100V105.75H91V87.75H73V105.75H64Z" fill="currentColor"/>
</svg>
	